<?xml version="1.0" encoding="utf-8"?>
<!-- Generator: Adobe Illustrator 25.3.0, SVG Export Plug-In . SVG Version: 6.00 Build 0)  -->
<svg version="1.1" id="Camada_1" xmlns="http://www.w3.org/2000/svg" xmlns:xlink="http://www.w3.org/1999/xlink" x="0px" y="0px"
	 viewBox="0 0 1516 290" style="enable-background:new 0 0 1516 290;" xml:space="preserve">
<style type="text/css">
	.st0{fill:#5E31AD;}
	.st1{fill:#252349;}
</style>
<g transform="translate(0.000000,290.000000) scale(0.100000,-0.100000)">
	<path class="st0" d="M770,2831c-180-38-340-123-474-251c-132-126-220-273-268-445c-21-77-22-101-26-597c-3-461-2-518,12-518
		c25,0,346,116,541,195c676,274,1237,604,1691,991c155,132,396,380,507,519c48,60,87,113,87,117c0,5-447,8-992,7
		C933,2849,848,2847,770,2831z"/>
	<path class="st0" d="M2845,2503c-61-156-188-399-285-548c-166-252-291-406-522-641l-158-160l2-560l3-559l96,2c166,3,332,53,487,149
		c103,64,243,206,306,312c60,101,112,250,126,362c6,53,10,397,10,912c0,683-2,828-13,828C2889,2600,2867,2558,2845,2503z"/>
	<path class="st1" d="M7075,2329c-209-26-409-130-558-289c-114-122-191-270-223-429c-22-112-15-305,15-406c80-270,285-492,551-594
		c153-59,176-61,788-61c346,0,581,4,618,11c288,51,538,237,665,494c73,149,84,200,84,395c0,161-1,168-33,260
		c-53,152-103,231-222,350c-75,75-127,118-183,149c-104,58-251,107-362,120C8107,2342,7178,2342,7075,2329z M8110,1774
		c79-37,128-78,169-143c118-184,48-417-157-518l-76-38l-359-3c-228-2-377,1-409,7c-116,25-235,117-279,215c-90,203,17,433,234,502
		c33,10,128,13,427,11l385-2L8110,1774z"/>
	<path class="st1" d="M12861,2328c-105-13-241-60-341-115c-64-36-111-74-190-153c-119-119-170-199-222-350c-32-93-33-99-33-265
		c0-151,3-178,23-245c95-302,317-519,629-617l88-28h625h625l90,28c306,96,521,307,621,607c26,79,28,97,28,245c1,137-2,171-22,238
		c-92,320-352,562-690,644c-57,13-149,16-612,19C13172,2337,12903,2334,12861,2328z M13902,1773c295-139,295-527,0-666l-67-32
		l-363-3c-395-3-439,1-530,54c-97,57-172,167-187,274c-8,57,9,148,37,203c27,53,93,123,145,154c88,51,100,52,513,50l385-2
		L13902,1773z"/>
	<path class="st1" d="M3790,2050v-260h435h435v-620V550h53c199,0,430,152,521,343c58,120,65,183,66,565v332h445h445v260v260H4990
		H3790V2050z"/>
	<path class="st1" d="M9340,1430V570h345h345v210v210h353h353l124-210l124-210h359c283,0,358,3,354,12c-3,7-71,128-151,268l-145,255
		l32,24c69,53,154,150,190,219c98,187,102,390,10,582c-53,110-177,232-293,288c-153,73-131,72-1120,72h-880V1430z M10970,1814
		c42-24,77-74,86-120c8-42-28-118-69-148c-28-20-43-21-483-24l-454-3v161v161l443-3C10918,1835,10936,1834,10970,1814z"/>
	<path class="st0" d="M1205,648C933,462,509,220,243,99c-51-23-93-48-93-56c0-11,101-13,618-11l617,3v359c0,231-4,360-10,362
		C1370,757,1293,709,1205,648z"/>
</g>
</svg>
