<?xml version="1.0" standalone="no"?>
<!DOCTYPE svg PUBLIC "-//W3C//DTD SVG 20010904//EN"
 "http://www.w3.org/TR/2001/REC-SVG-20010904/DTD/svg10.dtd">
<svg version="1.0" xmlns="http://www.w3.org/2000/svg"
 width="1516.000000pt" height="290.000000pt" viewBox="0 0 1516.000000 290.000000"
 preserveAspectRatio="xMidYMid meet">
<metadata>
Created by potrace 1.16, written by Peter Selinger 2001-2019
</metadata>
<g transform="translate(0.000000,290.000000) scale(0.100000,-0.100000)"
fill="#000000" stroke="none">
<path d="M770 2831 c-180 -38 -340 -123 -474 -251 -132 -126 -220 -273 -268
-445 -21 -77 -22 -101 -26 -597 -3 -461 -2 -518 12 -518 25 0 346 116 541 195
676 274 1237 604 1691 991 155 132 396 380 507 519 48 60 87 113 87 117 0 5
-447 8 -992 7 -915 0 -1000 -2 -1078 -18z"/>
<path d="M2845 2503 c-61 -156 -188 -399 -285 -548 -166 -252 -291 -406 -522
-641 l-158 -160 2 -560 3 -559 96 2 c166 3 332 53 487 149 103 64 243 206 306
312 60 101 112 250 126 362 6 53 10 397 10 912 0 683 -2 828 -13 828 -8 0 -30
-42 -52 -97z"/>
<path d="M7075 2329 c-209 -26 -409 -130 -558 -289 -114 -122 -191 -270 -223
-429 -22 -112 -15 -305 15 -406 80 -270 285 -492 551 -594 153 -59 176 -61
788 -61 346 0 581 4 618 11 288 51 538 237 665 494 73 149 84 200 84 395 0
161 -1 168 -33 260 -53 152 -103 231 -222 350 -75 75 -127 118 -183 149 -104
58 -251 107 -362 120 -108 13 -1037 13 -1140 0z m1035 -555 c79 -37 128 -78
169 -143 118 -184 48 -417 -157 -518 l-76 -38 -359 -3 c-228 -2 -377 1 -409 7
-116 25 -235 117 -279 215 -90 203 17 433 234 502 33 10 128 13 427 11 l385
-2 65 -31z"/>
<path d="M12861 2328 c-105 -13 -241 -60 -341 -115 -64 -36 -111 -74 -190
-153 -119 -119 -170 -199 -222 -350 -32 -93 -33 -99 -33 -265 0 -151 3 -178
23 -245 95 -302 317 -519 629 -617 l88 -28 625 0 625 0 90 28 c306 96 521 307
621 607 26 79 28 97 28 245 1 137 -2 171 -22 238 -92 320 -352 562 -690 644
-57 13 -149 16 -612 19 -308 1 -577 -2 -619 -8z m1041 -555 c295 -139 295
-527 0 -666 l-67 -32 -363 -3 c-395 -3 -439 1 -530 54 -97 57 -172 167 -187
274 -8 57 9 148 37 203 27 53 93 123 145 154 88 51 100 52 513 50 l385 -2 67
-32z"/>
<path d="M3790 2050 l0 -260 435 0 435 0 0 -620 0 -620 53 0 c199 0 430 152
521 343 58 120 65 183 66 565 l0 332 445 0 445 0 0 260 0 260 -1200 0 -1200 0
0 -260z"/>
<path d="M9340 1430 l0 -860 345 0 345 0 0 210 0 210 353 0 353 0 124 -210
124 -210 359 0 c283 0 358 3 354 12 -3 7 -71 128 -151 268 l-145 255 32 24
c69 53 154 150 190 219 98 187 102 390 10 582 -53 110 -177 232 -293 288 -153
73 -131 72 -1120 72 l-880 0 0 -860z m1630 384 c42 -24 77 -74 86 -120 8 -42
-28 -118 -69 -148 -28 -20 -43 -21 -483 -24 l-454 -3 0 161 0 161 443 -3 c425
-3 443 -4 477 -24z"/>
<path d="M1205 648 c-272 -186 -696 -428 -962 -549 -51 -23 -93 -48 -93 -56 0
-11 101 -13 618 -11 l617 3 0 359 c0 231 -4 360 -10 362 -5 1 -82 -47 -170
-108z"/>
</g>
</svg>
