<?xml version="1.0" standalone="no"?>
<!DOCTYPE svg PUBLIC "-//W3C//DTD SVG 20010904//EN"
 "http://www.w3.org/TR/2001/REC-SVG-20010904/DTD/svg10.dtd">
<svg version="1.0" xmlns="http://www.w3.org/2000/svg"
 width="3482.000000pt" height="290.000000pt" viewBox="0 0 3482.000000 290.000000"
 preserveAspectRatio="xMidYMid meet">
<metadata>
Created by potrace 1.16, written by Peter Selinger 2001-2019
</metadata>
<g transform="translate(0.000000,290.000000) scale(0.100000,-0.100000)"
fill="#000000" stroke="none">
<path d="M16110 1445 l0 -1445 50 0 50 0 0 1445 0 1445 -50 0 -50 0 0 -1445z"/>
<path d="M770 2831 c-180 -38 -340 -123 -474 -251 -132 -126 -220 -273 -268
-445 -21 -77 -22 -101 -26 -597 -3 -461 -2 -518 12 -518 25 0 346 116 541 195
676 274 1237 604 1691 991 155 132 396 380 507 519 48 60 87 113 87 117 0 5
-447 8 -992 7 -915 0 -1000 -2 -1078 -18z"/>
<path d="M2845 2503 c-61 -156 -188 -399 -285 -548 -166 -252 -291 -406 -522
-641 l-158 -160 2 -560 3 -559 96 2 c166 3 332 53 487 149 103 64 243 206 306
312 60 101 112 250 126 362 6 53 10 397 10 912 0 683 -2 828 -13 828 -8 0 -30
-42 -52 -97z"/>
<path d="M7075 2329 c-209 -26 -409 -130 -558 -289 -114 -122 -191 -270 -223
-429 -22 -112 -15 -305 15 -406 80 -270 285 -492 551 -594 153 -59 176 -61
788 -61 346 0 581 4 618 11 288 51 538 237 665 494 73 149 84 200 84 395 0
161 -1 168 -33 260 -53 152 -103 231 -222 350 -75 75 -127 118 -183 149 -104
58 -251 107 -362 120 -108 13 -1037 13 -1140 0z m1035 -555 c79 -37 128 -78
169 -143 118 -184 48 -417 -157 -518 l-76 -38 -359 -3 c-228 -2 -377 1 -409 7
-116 25 -235 117 -279 215 -90 203 17 433 234 502 33 10 128 13 427 11 l385
-2 65 -31z"/>
<path d="M12861 2328 c-105 -13 -241 -60 -341 -115 -64 -36 -111 -74 -190
-153 -119 -119 -170 -199 -222 -350 -32 -93 -33 -99 -33 -265 0 -151 3 -178
23 -245 95 -302 317 -519 629 -617 l88 -28 625 0 625 0 90 28 c306 96 521 307
621 607 26 79 28 97 28 245 1 137 -2 171 -22 238 -92 320 -352 562 -690 644
-57 13 -149 16 -612 19 -308 1 -577 -2 -619 -8z m1041 -555 c295 -139 295
-527 0 -666 l-67 -32 -363 -3 c-395 -3 -439 1 -530 54 -97 57 -172 167 -187
274 -8 57 9 148 37 203 27 53 93 123 145 154 88 51 100 52 513 50 l385 -2 67
-32z"/>
<path d="M3790 2050 l0 -260 435 0 435 0 0 -620 0 -620 53 0 c199 0 430 152
521 343 58 120 65 183 66 565 l0 332 445 0 445 0 0 260 0 260 -1200 0 -1200 0
0 -260z"/>
<path d="M9340 1430 l0 -860 345 0 345 0 0 210 0 210 353 0 353 0 124 -210
124 -210 359 0 c283 0 358 3 354 12 -3 7 -71 128 -151 268 l-145 255 32 24
c69 53 154 150 190 219 98 187 102 390 10 582 -53 110 -177 232 -293 288 -153
73 -131 72 -1120 72 l-880 0 0 -860z m1630 384 c42 -24 77 -74 86 -120 8 -42
-28 -118 -69 -148 -28 -20 -43 -21 -483 -24 l-454 -3 0 161 0 161 443 -3 c425
-3 443 -4 477 -24z"/>
<path d="M26640 2218 c0 -9 -10 -37 -22 -64 -28 -64 -30 -179 -4 -247 10 -26
71 -144 136 -261 66 -117 124 -234 131 -260 16 -64 6 -154 -24 -218 -19 -40
-26 -47 -26 -29 -1 24 -114 233 -278 515 -51 88 -93 167 -93 175 0 9 -5 23
-10 31 -15 23 -62 -90 -67 -164 -8 -98 15 -158 149 -383 78 -131 125 -223 135
-260 19 -71 13 -189 -13 -252 l-17 -43 -17 45 c-9 24 -86 161 -169 305 -137
233 -154 267 -164 329 -6 37 -12 70 -13 72 -2 2 -33 -7 -71 -19 -176 -56 -307
-150 -362 -262 -175 -350 420 -660 1061 -552 407 68 655 316 542 542 -50 100
-206 212 -359 258 -33 10 -64 21 -69 26 -5 4 -19 40 -31 81 -15 52 -59 137
-155 302 -74 127 -144 254 -156 283 -23 58 -34 73 -34 50z"/>
<path d="M17682 1518 c3 -304 4 -314 26 -360 52 -105 164 -165 287 -156 109 9
189 60 238 152 21 39 22 53 25 359 l3 317 -50 0 -51 0 0 -300 c0 -327 -2 -341
-56 -392 -38 -35 -74 -48 -134 -48 -86 0 -137 32 -171 105 -17 36 -19 70 -19
338 l0 297 -51 0 -51 0 4 -312z"/>
<path d="M27990 1778 c-88 -31 -134 -69 -167 -136 -32 -66 -38 -163 -14 -245
26 -90 130 -180 256 -221 86 -28 208 -99 232 -135 43 -64 23 -144 -44 -177
-57 -28 -292 -26 -381 3 -69 23 -65 26 -81 -47 -19 -84 -16 -97 32 -114 105
-38 319 -48 437 -20 161 38 244 138 243 294 0 92 -25 151 -88 209 -42 39 -210
129 -309 167 -143 53 -179 195 -64 256 37 19 57 22 138 22 52 -1 126 -9 163
-18 38 -9 72 -16 76 -16 11 0 34 110 29 140 -5 37 -68 52 -243 56 -137 4 -156
3 -215 -18z"/>
<path d="M30445 1776 l-50 -11 0 -460 0 -460 24 -48 c41 -84 123 -127 238
-127 50 0 151 16 153 24 3 8 27 151 26 153 0 0 -34 -5 -75 -13 -91 -17 -131
-11 -168 28 l-28 29 -3 225 -3 224 130 0 129 0 6 28 c3 15 8 51 11 80 l7 52
-141 0 -141 0 0 145 0 145 -32 -1 c-18 0 -55 -6 -83 -13z"/>
<path d="M33234 1781 c-54 -13 -54 -14 -54 -145 l0 -122 -109 4 c-92 4 -120 1
-178 -17 -119 -37 -203 -119 -239 -236 -38 -122 -26 -323 27 -426 52 -103 162
-169 281 -169 85 0 135 18 185 66 l43 41 0 -28 c0 -55 6 -59 91 -59 l79 0 0
550 0 550 -47 -1 c-27 -1 -62 -4 -79 -8z m-62 -427 c4 -3 8 -112 8 -243 l0
-239 -52 -22 c-60 -27 -158 -32 -198 -11 -84 44 -120 120 -120 252 0 147 53
232 169 270 26 9 177 3 193 -7z"/>
<path d="M18460 1295 l0 -285 45 0 45 0 0 190 c0 202 6 236 49 274 14 13 41
21 79 24 48 3 62 0 86 -19 50 -39 56 -70 56 -279 l0 -190 45 0 45 0 0 190 c0
214 7 246 62 280 45 27 117 27 152 -1 52 -41 56 -62 56 -274 l0 -195 46 0 45
0 -3 223 c-3 223 -3 224 -30 264 -36 55 -96 83 -176 83 -70 0 -112 -14 -159
-54 -31 -26 -32 -26 -42 -7 -32 59 -179 80 -264 37 l-47 -23 0 23 c0 22 -4 24
-45 24 l-45 0 0 -285z"/>
<path d="M19514 1560 c-23 -12 -50 -30 -60 -41 -17 -19 -17 -21 15 -52 28 -28
34 -30 44 -17 28 37 62 50 125 50 102 0 142 -34 142 -119 l0 -39 -118 -4
c-179 -6 -233 -42 -240 -161 -3 -52 0 -67 20 -96 36 -54 79 -74 167 -79 66 -3
82 0 124 21 44 23 47 23 47 6 0 -16 8 -19 45 -19 l45 0 0 218 c0 206 -1 220
-22 262 -33 64 -79 84 -198 88 -80 2 -101 0 -136 -18z m266 -342 c0 -67 -16
-98 -60 -120 -62 -32 -178 -18 -200 22 -16 29 -12 86 8 110 22 28 66 38 170
39 l82 1 0 -52z"/>
<path d="M20455 1566 c-84 -37 -127 -118 -133 -252 -7 -151 30 -238 122 -287
33 -17 58 -22 126 -22 91 0 129 13 182 62 l27 25 -31 26 c-25 21 -33 23 -47
14 -104 -77 -224 -63 -270 30 -11 24 -21 59 -21 76 l0 32 191 0 192 0 -7 61
c-13 124 -53 195 -130 230 -49 22 -156 25 -201 5z m172 -82 c32 -20 55 -58 63
-104 l7 -40 -143 0 -144 0 0 25 c0 36 36 102 62 116 57 30 110 31 155 3z"/>
<path d="M20950 1295 l0 -285 44 0 44 0 4 198 c2 165 6 202 21 229 45 83 190
85 232 3 12 -23 15 -70 15 -230 l0 -200 44 0 44 0 4 198 c2 165 6 202 21 229
45 83 190 85 232 3 12 -23 15 -70 15 -230 l0 -200 51 0 51 0 -4 213 c-4 191
-6 216 -25 252 -39 75 -93 105 -188 105 -70 0 -124 -20 -159 -59 l-19 -21 -26
24 c-50 46 -88 58 -167 54 -56 -2 -80 -9 -103 -26 -38 -28 -41 -28 -41 3 0 23
-4 25 -45 25 l-45 0 0 -285z"/>
<path d="M21960 1170 l0 -410 45 0 45 0 0 151 0 151 30 -26 c34 -28 101 -42
162 -32 108 17 158 95 166 255 7 154 -20 242 -91 295 -24 18 -43 21 -115 21
-75 0 -92 -3 -119 -23 l-33 -23 0 25 c0 24 -3 26 -45 26 l-45 0 0 -410z m297
310 c40 -24 63 -94 63 -189 0 -129 -37 -195 -115 -207 -54 -8 -104 14 -130 59
-15 25 -20 55 -23 137 -3 94 -1 110 20 150 13 25 34 51 48 57 37 19 101 16
137 -7z"/>
<path d="M22580 1295 l0 -285 45 0 45 0 0 190 c0 214 7 246 62 280 43 26 107
26 140 0 l25 -19 31 32 c18 18 32 36 32 40 0 4 -18 16 -40 27 -57 29 -143 27
-204 -5 l-46 -24 0 24 c0 23 -4 25 -45 25 l-45 0 0 -285z"/>
<path d="M23124 1561 c-84 -39 -126 -128 -128 -266 -1 -112 20 -177 72 -228
88 -86 255 -90 353 -7 l34 29 -28 28 c-23 24 -30 26 -45 15 -106 -77 -226 -65
-273 29 -9 19 -19 51 -22 72 l-6 37 191 0 191 0 -5 75 c-6 94 -37 158 -97 200
-37 26 -53 30 -119 33 -59 2 -86 -2 -118 -17z m176 -76 c30 -16 70 -83 70
-119 l0 -26 -144 0 -143 0 7 38 c9 50 24 77 57 100 48 34 96 36 153 7z"/>
<path d="M23689 1557 c-109 -58 -119 -216 -18 -269 19 -10 84 -24 144 -32 123
-16 138 -26 133 -90 -5 -61 -39 -81 -141 -81 -80 0 -101 7 -159 47 -14 10 -22
8 -43 -12 -14 -13 -25 -28 -25 -35 0 -19 81 -64 139 -76 80 -16 179 -7 232 22
63 35 89 79 89 150 0 50 -4 63 -30 92 -33 38 -74 52 -175 62 -121 12 -158 41
-141 109 15 60 140 81 228 37 l43 -21 29 29 29 29 -27 17 c-47 31 -100 44
-182 45 -66 0 -89 -4 -125 -23z"/>
<path d="M24255 1566 c-16 -8 -42 -27 -58 -43 l-27 -29 30 -29 30 -29 31 30
c29 27 35 29 116 29 80 0 86 -1 109 -28 18 -21 24 -40 24 -76 l0 -49 -118 -4
c-100 -3 -123 -7 -160 -28 -108 -61 -107 -228 1 -288 24 -12 56 -17 124 -17
79 0 95 3 122 23 30 22 31 22 31 2 0 -17 6 -20 46 -20 l45 0 -3 234 c-3 267
-5 271 -88 314 -37 18 -60 22 -135 22 -53 -1 -102 -6 -120 -14z m255 -355 c0
-97 -53 -138 -168 -129 -45 4 -60 10 -79 32 -32 38 -31 90 3 121 30 28 49 31
162 34 l82 1 0 -59z"/>
<path d="M28914 1516 c-179 -41 -279 -154 -304 -345 -23 -171 23 -327 121
-416 113 -102 290 -111 397 -20 l42 37 0 -36 0 -36 85 0 85 0 0 385 0 384 -27
15 c-75 38 -296 55 -399 32z m237 -162 c5 -3 9 -111 9 -244 l0 -240 -38 -19
c-132 -67 -285 -9 -321 122 -18 64 -10 211 13 257 33 65 85 108 156 131 26 9
165 4 181 -7z"/>
<path d="M31184 1516 c-162 -37 -262 -141 -294 -304 -18 -90 -8 -252 19 -324
29 -75 97 -150 169 -185 49 -24 69 -28 142 -28 95 0 147 20 193 74 l25 30 6
-40 6 -39 85 0 85 0 0 385 c0 439 11 393 -102 420 -93 22 -260 28 -334 11z
m248 -162 c4 -3 8 -112 8 -242 l0 -238 -29 -17 c-49 -29 -135 -40 -193 -26
-123 29 -186 184 -144 349 25 96 83 159 169 181 31 8 173 3 189 -7z"/>
<path d="M29760 1514 c-14 -3 -76 -14 -137 -26 l-113 -20 0 -389 0 -389 90 0
90 0 0 328 0 329 78 11 c132 18 226 -8 256 -72 14 -29 16 -76 16 -315 l0 -281
91 0 90 0 -3 323 -3 322 -28 48 c-32 54 -83 92 -154 113 -48 15 -227 27 -273
18z"/>
<path d="M32005 1510 c-33 -5 -95 -17 -137 -26 l-78 -17 0 -388 0 -389 90 0
90 0 0 329 0 329 73 10 c80 12 165 2 203 -23 57 -37 59 -45 62 -357 l3 -288
90 0 90 0 -3 318 -3 317 -29 52 c-33 59 -82 97 -153 119 -60 19 -218 26 -298
14z"/>
<path d="M33745 1506 c-63 -20 -97 -41 -142 -88 -151 -156 -146 -510 9 -643
103 -87 264 -123 436 -95 92 15 142 37 142 64 0 11 6 49 14 84 12 57 11 62 -3
57 -134 -52 -248 -71 -334 -56 -103 18 -159 72 -174 167 l-6 34 271 0 270 0 7
76 c19 195 -38 318 -175 383 -47 22 -70 26 -165 28 -69 2 -125 -2 -150 -11z
m193 -151 c64 -27 102 -73 117 -142 l7 -33 -197 0 -197 0 7 33 c10 46 45 105
74 123 54 36 130 43 189 19z"/>
<path d="M34487 1504 c-37 -8 -79 -19 -92 -24 l-25 -10 0 -385 0 -385 90 0 90
0 0 329 0 329 66 7 c36 4 95 5 129 2 75 -5 75 -5 75 89 l0 64 -132 -1 c-75 0
-162 -7 -201 -15z"/>
<path d="M1205 648 c-272 -186 -696 -428 -962 -549 -51 -23 -93 -48 -93 -56 0
-11 101 -13 618 -11 l617 3 0 359 c0 231 -4 360 -10 362 -5 1 -82 -47 -170
-108z"/>
</g>
</svg>
