<?xml version="1.0" encoding="utf-8"?>
<!-- Generator: Adobe Illustrator 25.3.0, SVG Export Plug-In . SVG Version: 6.00 Build 0)  -->
<svg version="1.1" id="Camada_1" xmlns="http://www.w3.org/2000/svg" xmlns:xlink="http://www.w3.org/1999/xlink" x="0px" y="0px"
	 viewBox="0 0 3482 290" style="enable-background:new 0 0 3482 290;" xml:space="preserve">
<style type="text/css">
	.st0{fill:#252349;}
	.st1{fill:#5F30AF;}
</style>
<g transform="translate(0.000000,290.000000) scale(0.100000,-0.100000)">
	<path class="st0" d="M16110,1445V0h50h50v1445v1445h-50h-50V1445z"/>
	<path class="st1" d="M770,2831c-180-38-340-123-474-251c-132-126-220-273-268-445c-21-77-22-101-26-597c-3-461-2-518,12-518
		c25,0,346,116,541,195c676,274,1237,604,1691,991c155,132,396,380,507,519c48,60,87,113,87,117c0,5-447,8-992,7
		C933,2849,848,2847,770,2831z"/>
	<path class="st1" d="M2845,2503c-61-156-188-399-285-548c-166-252-291-406-522-641l-158-160l2-560l3-559l96,2c166,3,332,53,487,149
		c103,64,243,206,306,312c60,101,112,250,126,362c6,53,10,397,10,912c0,683-2,828-13,828C2889,2600,2867,2558,2845,2503z"/>
	<path class="st0" d="M7075,2329c-209-26-409-130-558-289c-114-122-191-270-223-429c-22-112-15-305,15-406c80-270,285-492,551-594
		c153-59,176-61,788-61c346,0,581,4,618,11c288,51,538,237,665,494c73,149,84,200,84,395c0,161-1,168-33,260
		c-53,152-103,231-222,350c-75,75-127,118-183,149c-104,58-251,107-362,120C8107,2342,7178,2342,7075,2329z M8110,1774
		c79-37,128-78,169-143c118-184,48-417-157-518l-76-38l-359-3c-228-2-377,1-409,7c-116,25-235,117-279,215c-90,203,17,433,234,502
		c33,10,128,13,427,11l385-2L8110,1774z"/>
	<path class="st0" d="M12861,2328c-105-13-241-60-341-115c-64-36-111-74-190-153c-119-119-170-199-222-350c-32-93-33-99-33-265
		c0-151,3-178,23-245c95-302,317-519,629-617l88-28h625h625l90,28c306,96,521,307,621,607c26,79,28,97,28,245c1,137-2,171-22,238
		c-92,320-352,562-690,644c-57,13-149,16-612,19C13172,2337,12903,2334,12861,2328z M13902,1773c295-139,295-527,0-666l-67-32
		l-363-3c-395-3-439,1-530,54c-97,57-172,167-187,274c-8,57,9,148,37,203c27,53,93,123,145,154c88,51,100,52,513,50l385-2
		L13902,1773z"/>
	<path class="st0" d="M3790,2050v-260h435h435v-620V550h53c199,0,430,152,521,343c58,120,65,183,66,565v332h445h445v260v260H4990
		H3790V2050z"/>
	<path class="st0" d="M9340,1430V570h345h345v210v210h353h353l124-210l124-210h359c283,0,358,3,354,12c-3,7-71,128-151,268l-145,255
		l32,24c69,53,154,150,190,219c98,187,102,390,10,582c-53,110-177,232-293,288c-153,73-131,72-1120,72h-880V1430z M10970,1814
		c42-24,77-74,86-120c8-42-28-118-69-148c-28-20-43-21-483-24l-454-3v161v161l443-3C10918,1835,10936,1834,10970,1814z"/>
	<path class="st0" d="M26640,2218c0-9-10-37-22-64c-28-64-30-179-4-247c10-26,71-144,136-261c66-117,124-234,131-260
		c16-64,6-154-24-218c-19-40-26-47-26-29c-1,24-114,233-278,515c-51,88-93,167-93,175c0,9-5,23-10,31c-15,23-62-90-67-164
		c-8-98,15-158,149-383c78-131,125-223,135-260c19-71,13-189-13-252l-17-43l-17,45c-9,24-86,161-169,305c-137,233-154,267-164,329
		c-6,37-12,70-13,72c-2,2-33-7-71-19c-176-56-307-150-362-262c-175-350,420-660,1061-552c407,68,655,316,542,542
		c-50,100-206,212-359,258c-33,10-64,21-69,26c-5,4-19,40-31,81c-15,52-59,137-155,302c-74,127-144,254-156,283
		C26651,2226,26640,2241,26640,2218z"/>
	<path class="st0" d="M17682,1518c3-304,4-314,26-360c52-105,164-165,287-156c109,9,189,60,238,152c21,39,22,53,25,359l3,317h-50
		h-51v-300c0-327-2-341-56-392c-38-35-74-48-134-48c-86,0-137,32-171,105c-17,36-19,70-19,338v297h-51h-51L17682,1518z"/>
	<path class="st0" d="M27990,1778c-88-31-134-69-167-136c-32-66-38-163-14-245c26-90,130-180,256-221c86-28,208-99,232-135
		c43-64,23-144-44-177c-57-28-292-26-381,3c-69,23-65,26-81-47c-19-84-16-97,32-114c105-38,319-48,437-20c161,38,244,138,243,294
		c0,92-25,151-88,209c-42,39-210,129-309,167c-143,53-179,195-64,256c37,19,57,22,138,22c52-1,126-9,163-18c38-9,72-16,76-16
		c11,0,34,110,29,140c-5,37-68,52-243,56C28068,1800,28049,1799,27990,1778z"/>
	<path class="st0" d="M30445,1776l-50-11v-460V845l24-48c41-84,123-127,238-127c50,0,151,16,153,24c3,8,27,151,26,153
		c0,0-34-5-75-13c-91-17-131-11-168,28l-28,29l-3,225l-3,224h130h129l6,28c3,15,8,51,11,80l7,52h-141h-141v145v145l-32-1
		C30510,1789,30473,1783,30445,1776z"/>
	<path class="st0" d="M33234,1781c-54-13-54-14-54-145v-122l-109,4c-92,4-120,1-178-17c-119-37-203-119-239-236
		c-38-122-26-323,27-426c52-103,162-169,281-169c85,0,135,18,185,66l43,41v-28c0-55,6-59,91-59h79v550v550l-47-1
		C33286,1788,33251,1785,33234,1781z M33172,1354c4-3,8-112,8-243V872l-52-22c-60-27-158-32-198-11c-84,44-120,120-120,252
		c0,147,53,232,169,270C33005,1370,33156,1364,33172,1354z"/>
	<path class="st0" d="M18460,1295v-285h45h45v190c0,202,6,236,49,274c14,13,41,21,79,24c48,3,62,0,86-19c50-39,56-70,56-279v-190h45
		h45v190c0,214,7,246,62,280c45,27,117,27,152-1c52-41,56-62,56-274v-195h46h45l-3,223c-3,223-3,224-30,264c-36,55-96,83-176,83
		c-70,0-112-14-159-54c-31-26-32-26-42-7c-32,59-179,80-264,37l-47-23v23c0,22-4,24-45,24h-45V1295z"/>
	<path class="st0" d="M19514,1560c-23-12-50-30-60-41c-17-19-17-21,15-52c28-28,34-30,44-17c28,37,62,50,125,50
		c102,0,142-34,142-119v-39l-118-4c-179-6-233-42-240-161c-3-52,0-67,20-96c36-54,79-74,167-79c66-3,82,0,124,21c44,23,47,23,47,6
		c0-16,8-19,45-19h45v218c0,206-1,220-22,262c-33,64-79,84-198,88C19570,1580,19549,1578,19514,1560z M19780,1218c0-67-16-98-60-120
		c-62-32-178-18-200,22c-16,29-12,86,8,110c22,28,66,38,170,39l82,1V1218z"/>
	<path class="st0" d="M20455,1566c-84-37-127-118-133-252c-7-151,30-238,122-287c33-17,58-22,126-22c91,0,129,13,182,62l27,25
		l-31,26c-25,21-33,23-47,14c-104-77-224-63-270,30c-11,24-21,59-21,76v32h191h192l-7,61c-13,124-53,195-130,230
		C20607,1583,20500,1586,20455,1566z M20627,1484c32-20,55-58,63-104l7-40h-143h-144v25c0,36,36,102,62,116
		C20529,1511,20582,1512,20627,1484z"/>
	<path class="st0" d="M20950,1295v-285h44h44l4,198c2,165,6,202,21,229c45,83,190,85,232,3c12-23,15-70,15-230v-200h44h44l4,198
		c2,165,6,202,21,229c45,83,190,85,232,3c12-23,15-70,15-230v-200h51h51l-4,213c-4,191-6,216-25,252c-39,75-93,105-188,105
		c-70,0-124-20-159-59l-19-21l-26,24c-50,46-88,58-167,54c-56-2-80-9-103-26c-38-28-41-28-41,3c0,23-4,25-45,25h-45V1295z"/>
	<path class="st0" d="M21960,1170V760h45h45v151v151l30-26c34-28,101-42,162-32c108,17,158,95,166,255c7,154-20,242-91,295
		c-24,18-43,21-115,21c-75,0-92-3-119-23l-33-23v25c0,24-3,26-45,26h-45V1170z M22257,1480c40-24,63-94,63-189c0-129-37-195-115-207
		c-54-8-104,14-130,59c-15,25-20,55-23,137c-3,94-1,110,20,150c13,25,34,51,48,57C22157,1506,22221,1503,22257,1480z"/>
	<path class="st0" d="M22580,1295v-285h45h45v190c0,214,7,246,62,280c43,26,107,26,140,0l25-19l31,32c18,18,32,36,32,40
		s-18,16-40,27c-57,29-143,27-204-5l-46-24v24c0,23-4,25-45,25h-45V1295z"/>
	<path class="st0" d="M23124,1561c-84-39-126-128-128-266c-1-112,20-177,72-228c88-86,255-90,353-7l34,29l-28,28c-23,24-30,26-45,15
		c-106-77-226-65-273,29c-9,19-19,51-22,72l-6,37h191h191l-5,75c-6,94-37,158-97,200c-37,26-53,30-119,33
		C23183,1580,23156,1576,23124,1561z M23300,1485c30-16,70-83,70-119v-26h-144h-143l7,38c9,50,24,77,57,100
		C23195,1512,23243,1514,23300,1485z"/>
	<path class="st0" d="M23689,1557c-109-58-119-216-18-269c19-10,84-24,144-32c123-16,138-26,133-90c-5-61-39-81-141-81
		c-80,0-101,7-159,47c-14,10-22,8-43-12c-14-13-25-28-25-35c0-19,81-64,139-76c80-16,179-7,232,22c63,35,89,79,89,150
		c0,50-4,63-30,92c-33,38-74,52-175,62c-121,12-158,41-141,109c15,60,140,81,228,37l43-21l29,29l29,29l-27,17c-47,31-100,44-182,45
		C23748,1580,23725,1576,23689,1557z"/>
	<path class="st0" d="M24255,1566c-16-8-42-27-58-43l-27-29l30-29l30-29l31,30c29,27,35,29,116,29c80,0,86-1,109-28
		c18-21,24-40,24-76v-49l-118-4c-100-3-123-7-160-28c-108-61-107-228,1-288c24-12,56-17,124-17c79,0,95,3,122,23c30,22,31,22,31,2
		c0-17,6-20,46-20h45l-3,234c-3,267-5,271-88,314c-37,18-60,22-135,22C24322,1579,24273,1574,24255,1566z M24510,1211
		c0-97-53-138-168-129c-45,4-60,10-79,32c-32,38-31,90,3,121c30,28,49,31,162,34l82,1V1211z"/>
	<path class="st0" d="M28914,1516c-179-41-279-154-304-345c-23-171,23-327,121-416c113-102,290-111,397-20l42,37v-36v-36h85h85v385
		v384l-27,15C29238,1522,29017,1539,28914,1516z M29151,1354c5-3,9-111,9-244V870l-38-19c-132-67-285-9-321,122
		c-18,64-10,211,13,257c33,65,85,108,156,131C28996,1370,29135,1365,29151,1354z"/>
	<path class="st0" d="M31184,1516c-162-37-262-141-294-304c-18-90-8-252,19-324c29-75,97-150,169-185c49-24,69-28,142-28
		c95,0,147,20,193,74l25,30l6-40l6-39h85h85v385c0,439,11,393-102,420C31425,1527,31258,1533,31184,1516z M31432,1354
		c4-3,8-112,8-242V874l-29-17c-49-29-135-40-193-26c-123,29-186,184-144,349c25,96,83,159,169,181C31274,1369,31416,1364,31432,1354
		z"/>
	<path class="st0" d="M29760,1514c-14-3-76-14-137-26l-113-20v-389V690h90h90v328v329l78,11c132,18,226-8,256-72c14-29,16-76,16-315
		V690h91h90l-3,323l-3,322l-28,48c-32,54-83,92-154,113C29985,1511,29806,1523,29760,1514z"/>
	<path class="st0" d="M32005,1510c-33-5-95-17-137-26l-78-17v-388V690h90h90v329v329l73,10c80,12,165,2,203-23c57-37,59-45,62-357
		l3-288h90h90l-3,318l-3,317l-29,52c-33,59-82,97-153,119C32243,1515,32085,1522,32005,1510z"/>
	<path class="st0" d="M33745,1506c-63-20-97-41-142-88c-151-156-146-510,9-643c103-87,264-123,436-95c92,15,142,37,142,64
		c0,11,6,49,14,84c12,57,11,62-3,57c-134-52-248-71-334-56c-103,18-159,72-174,167l-6,34h271h270l7,76c19,195-38,318-175,383
		c-47,22-70,26-165,28C33826,1519,33770,1515,33745,1506z M33938,1355c64-27,102-73,117-142l7-33h-197h-197l7,33
		c10,46,45,105,74,123C33803,1372,33879,1379,33938,1355z"/>
	<path class="st0" d="M34487,1504c-37-8-79-19-92-24l-25-10v-385V700h90h90v329v329l66,7c36,4,95,5,129,2c75-5,75-5,75,89v64l-132-1
		C34613,1519,34526,1512,34487,1504z"/>
	<path class="st1" d="M1205,648C933,462,509,220,243,99c-51-23-93-48-93-56c0-11,101-13,618-11l617,3v359c0,231-4,360-10,362
		C1370,757,1293,709,1205,648z"/>
</g>
</svg>
